{
    "accessors" : [
        {
            "bufferView" : 0, 
            "componentType" : 5123, 
            "count" : 3960, 
            "max" : [
                1523
            ], 
            "min" : [
                0
            ], 
            "type" : "SCALAR"
        }, 
        {
            "bufferView" : 1, 
            "componentType" : 5126, 
            "count" : 1524, 
            "max" : [
                0.05391261726617813, 
                0.009999999776482582, 
                0.041880637407302856
            ], 
            "min" : [
                -0.05273004621267319, 
                -0.009999999776482582, 
                -0.053910981863737106
            ], 
            "type" : "VEC3"
        }, 
        {
            "bufferView" : 2, 
            "componentType" : 5126, 
            "count" : 1524, 
            "max" : [
                0.99993896484375, 
                1.0, 
                0.99993896484375
            ], 
            "min" : [
                -0.999969482421875, 
                -1.0, 
                -0.999969482421875
            ], 
            "type" : "VEC3"
        }, 
        {
            "bufferView" : 3, 
            "componentType" : 5123, 
            "count" : 8910, 
            "max" : [
                3420
            ], 
            "min" : [
                0
            ], 
            "type" : "SCALAR"
        }, 
        {
            "bufferView" : 4, 
            "componentType" : 5126, 
            "count" : 3421, 
            "max" : [
                0.11381575465202332, 
                0.009999999776482582, 
                0.036625783890485764
            ], 
            "min" : [
                -0.0871153324842453, 
                -0.009999999776482582, 
                -0.063821941614151
            ], 
            "type" : "VEC3"
        }, 
        {
            "bufferView" : 5, 
            "componentType" : 5126, 
            "count" : 3421, 
            "max" : [
                1.0, 
                1.0, 
                0.999969482421875
            ], 
            "min" : [
                -0.999969482421875, 
                -1.0, 
                -0.999969482421875
            ], 
            "type" : "VEC3"
        }
    ], 
    "asset" : {
        "generator" : "Khronos Blender glTF 2.0 exporter", 
        "version" : "2.0"
    }, 
    "bufferViews" : [
        {
            "buffer" : 0, 
            "byteLength" : 7920, 
            "byteOffset" : 0, 
            "target" : 34963
        }, 
        {
            "buffer" : 0, 
            "byteLength" : 18288, 
            "byteOffset" : 7920, 
            "target" : 34962
        }, 
        {
            "buffer" : 0, 
            "byteLength" : 18288, 
            "byteOffset" : 26208, 
            "target" : 34962
        }, 
        {
            "buffer" : 0, 
            "byteLength" : 17820, 
            "byteOffset" : 44496, 
            "target" : 34963
        }, 
        {
            "buffer" : 0, 
            "byteLength" : 41052, 
            "byteOffset" : 62316, 
            "target" : 34962
        }, 
        {
            "buffer" : 0, 
            "byteLength" : 41052, 
            "byteOffset" : 103368, 
            "target" : 34962
        }
    ], 
    "buffers" : [
        {
            "byteLength" : 144420, 
            "uri" : "BMX.bin"
        }
    ], 
    "materials" : [
        {
            "name" : "SVGMat", 
            "pbrMetallicRoughness" : {
                "baseColorFactor" : [
                    1.0, 
                    0.006995410658419132, 
                    0.29177066683769226, 
                    1.0
                ], 
                "metallicFactor" : 0.0
            }
        }
    ], 
    "meshes" : [
        {
            "name" : "Mesh", 
            "primitives" : [
                {
                    "attributes" : {
                        "NORMAL" : 2, 
                        "POSITION" : 1
                    }, 
                    "indices" : 0, 
                    "material" : 0
                }
            ]
        }, 
        {
            "name" : "Mesh.001", 
            "primitives" : [
                {
                    "attributes" : {
                        "NORMAL" : 5, 
                        "POSITION" : 4
                    }, 
                    "indices" : 3, 
                    "material" : 0
                }
            ]
        }
    ], 
    "nodes" : [
        {
            "name" : "Camera", 
            "rotation" : [
                0.483536034822464, 
                0.33687159419059753, 
                -0.20870360732078552, 
                0.7804827094078064
            ], 
            "translation" : [
                7.481131553649902, 
                5.34366512298584, 
                6.5076398849487305
            ]
        }, 
        {
            "mesh" : 1, 
            "name" : "Curve", 
            "rotation" : [
                0.7071068286895752, 
                0.0, 
                -0.0, 
                0.7071068286895752
            ], 
            "translation" : [
                0.09445331245660782, 
                -0.004207879304885864, 
                0.15386031568050385
            ]
        }, 
        {
            "mesh" : 0, 
            "name" : "Curve.001", 
            "rotation" : [
                0.7071068286895752, 
                0.0, 
                -0.0, 
                0.7071068286895752
            ], 
            "translation" : [
                0.22775089740753174, 
                0.004207879304885864, 
                0.15386031568050385
            ]
        }, 
        {
            "name" : "Lamp", 
            "rotation" : [
                0.16907575726509094, 
                0.7558802962303162, 
                -0.27217137813568115, 
                0.570947527885437
            ], 
            "scale" : [
                1.0, 
                1.0, 
                0.9999999403953552
            ], 
            "translation" : [
                4.076245307922363, 
                5.903861999511719, 
                -1.0054539442062378
            ]
        }
    ], 
    "scene" : 0, 
    "scenes" : [
        {
            "name" : "Scene", 
            "nodes" : [
                2, 
                1, 
                3, 
                0
            ]
        }
    ]
}
