<svg version="1" xmlns="http://www.w3.org/2000/svg" width="682.667" height="682.667" viewBox="0 0 512.000000 512.000000"><path d="M0 256v256h512V0H0v256zm257.7-68.4c5.7 4.4 6.2 6.2 5.3 22.4-.7 14.6.1 25.4 2.1 29.3 1.1 1.9 3 .1 26.4-23.5 13.8-14.1 26.2-26.1 27.4-26.8 1.2-.6 4.6-1.5 7.4-2 6.3-1 10 .3 15.6 5.6 3.5 3.1 3.9 4.1 3.4 6.8-1.6 8.7-18.2 47.4-33.7 78.3-5.9 11.7-11.1 22.5-11.6 24l-1 2.8 2.2-3c3.9-5.3 24.9-26.4 39.3-39.3 7.7-6.9 14.2-12.7 14.4-12.9.2-.2-.5-4.5-1.7-9.6-1.1-5-2.8-14.3-3.8-20.5-1.9-12.9-1.3-18.3 3.2-25.9l2.5-4.3h7.2c5.5 0 8 .5 10.7 2.1 6.7 4 7 4.9 6.3 19.5-.4 7.9-.2 13.3.4 13.7.5.3 9.4-7.1 19.9-16.5 10.4-9.3 20.3-17.8 21.9-18.9 2-1.3 4.8-1.9 8.6-1.9 4.6 0 6.3.5 9.6 2.9 4.8 3.5 8.3 7.7 8.3 10.2 0 1.8-6.5 7.8-20 18.4-4.1 3.2-14.8 12.8-23.7 21.3l-16.2 15.4 5.1 10.2c11.2 22.3 14.6 34.9 12.1 44.5-.7 3.1-1.5 5.6-1.6 5.7-.1.2-2.9.5-6.2.8-3.3.2-7 .8-8.2 1.1-1.6.5-2.3.3-2.3-.5 0-.7-.6-1.8-1.4-2.4-.8-.6-3.1-5.8-5.2-11.6-3.2-8.7-11.5-25.4-13.7-27.7-1.4-1.4-31.1 27.6-38.9 37.9-3.3 4.4-5.9 6.9-7.7 7.3-3.4.7-13.4-3.3-18.4-7.5-3.2-2.7-3.8-3.7-3.2-5.9.5-1.9-.2-1.4-2.5 2.2-3.1 4.5-3.5 4.8-7.4 4.6-2.2-.1-4.7-.7-5.3-1.2-.7-.5-2.3-.7-3.5-.4-1.5.4-2.8-.1-4.5-1.9-5.1-5.6-2.3-18 9.7-43.4l7-14.5-4.6 5c-2.5 2.7-6.6 7.8-9.2 11.2-2.5 3.5-6.3 7.5-8.5 8.9l-3.9 2.6-4.7-2.5c-2.5-1.3-5.8-2.7-7.3-3.1-1.5-.3-3.8-2.1-5.1-3.9-2.8-3.7-7.2-14.4-8.2-20-.4-2-1-3.7-1.4-3.7-.3 0-5.5 11.1-11.5 24.7C209.4 313 205 321 202.5 317c-.3-.5-1.7-1-3-1s-2.6-.4-2.9-.9c-.4-.5-2.2-.5-4.6 0-3.5.8-4.2.6-6.6-1.7-2.3-2.4-2.5-3.2-1.9-7.3.6-4.1 4-15.7 6-20.3.4-1.1-3 .2-10.8 4.2-6.3 3.3-17.7 8.5-25.3 11.6-24.5 9.8-66.2 23.4-71.8 23.4-.9 0-1.6-.7-1.6-1.5s-.4-1.5-1-1.5c-.5 0-1.4-.9-2-2-.9-1.6-.6-2.2 1.7-3.5l2.8-1.6-3.8.5c-2.8.4-4 .1-4.4-1-.4-1.1-1.4-1.3-3.6-.8-2.5.5-2.9.4-2.4-1 .5-1.1.1-1.6-1.3-1.6-4.1 0-1-3.8 5-6.4 3.2-1.3 3.4-1.7 3.1-5.6-.2-3.6.7-5.8 7.5-17.3 4.2-7.3 14.8-24.1 23.6-37.5 8.7-13.4 15.8-24.5 15.8-24.8 0-.2-1.4-.4-3-.4-6.8 0-13.7-4.6-17.2-11.3-3.5-6.9-1-10.4 9.4-13.1 8.4-2.2 31-3.9 50.3-3.9 18.2.1 27.4 1.6 36.5 6.3 9.9 5 19.3 17.4 19.3 25.3v4.1l2.9-5.8c1.6-3.2 4.5-9.8 6.3-14.6 6.5-17 8.3-19.3 16-20.9 6.8-1.3 12.3-.5 16.2 2.5z"/><path d="M156.7 221.1c-2.6 4-4.7 7.7-4.7 8.1 0 1.1 2 .5 13.4-3.9 12.2-4.8 20.9-9 19.9-9.6-.5-.3-6-.8-12.4-1.2l-11.6-.8-4.6 7.4zM210.2 233c-2.4 2.2-9.1 6.3-14.9 9.1l-10.5 5.1 6 6.2c3.3 3.3 6.4 7 6.9 8 .9 1.6 2.1-.3 7.8-12 7-14.5 9.7-20.4 9.3-20.4-.2.1-2.3 1.8-4.6 4zM140 265c-3.6.4-7.5 1-8.7 1.4-2 .6-14.9 19.3-14 20.3 1.6 1.5 39.4-15.3 45.2-20.1l3-2.5-9.5.1c-5.2 0-12.4.4-16 .8z"/></svg>