<?xml version="1.0" encoding="utf-8"?>
<!-- Generator: Adobe Illustrator 16.0.0, SVG Export Plug-In . SVG Version: 6.00 Build 0)  -->
<!DOCTYPE svg PUBLIC "-//W3C//DTD SVG 1.1//EN" "http://www.w3.org/Graphics/SVG/1.1/DTD/svg11.dtd">
<svg version="1.1" id="Layer_1" xmlns="http://www.w3.org/2000/svg" xmlns:xlink="http://www.w3.org/1999/xlink" x="0px" y="0px"
	 width="1000.201px" height="1735px" viewBox="-0.1 -385 1000.201 1735" enable-background="new -0.1 -385 1000.201 1735"
	 xml:space="preserve">
<linearGradient id="SVGID_1_" gradientUnits="userSpaceOnUse" x1="15.2009" y1="840.9805" x2="15.2009" y2="665.9805" gradientTransform="matrix(1 0 0 1 484.7998 509.0195)">
	<stop  offset="0" style="stop-color:#808080"/>
	<stop  offset="0.5" style="stop-color:#4D4D4D"/>
</linearGradient>
<path fill="url(#SVGID_1_)" d="M950,1287c0,34.518-24.686,63-55.75,63h-787.5c-31.066,0-56.75-28.482-56.75-63v-50
	c0-34.518,25.684-62,56.75-62h787.5c31.064,0,55.75,27.482,55.75,62V1287z"/>
<linearGradient id="SVGID_2_" gradientUnits="userSpaceOnUse" x1="-74.8772" y1="1124.7334" x2="1074.8773" y2="125.2671">
	<stop  offset="0.48" style="stop-color:#808080"/>
	<stop  offset="0.52" style="stop-color:#E6E6E6"/>
</linearGradient>
<path fill="url(#SVGID_2_)" d="M937.5,0h-875C27.982,0,0,27.982,0,62.5v1125c0,34.518,27.98,62.5,62.5,62.5h875
	c34.518,0,62.5-27.982,62.5-62.5V62.5C1000,27.982,972.018,0,937.5,0z M836.361,682.152c-4.314,25.938-28.869,48.832-54.952,51.504
	c-186.278,17.328-373.361,17.332-559.643,0.002c-26.09-2.683-50.63-25.563-54.954-51.506c-20.308-131.698-20.303-264.303-0.001-396
	c4.327-25.942,28.862-48.833,54.955-51.51c186.287-17.319,373.354-17.316,559.643,0c26.094,2.674,50.625,25.57,54.952,51.51
	C856.664,417.86,856.65,550.444,836.361,682.152z"/>
<linearGradient id="SVGID_3_" gradientUnits="userSpaceOnUse" x1="7.8225" y1="1117.1787" x2="993.1782" y2="131.823">
	<stop  offset="0" style="stop-color:#999999"/>
	<stop  offset="1" style="stop-color:#CCCCCC"/>
</linearGradient>
<path fill="url(#SVGID_3_)" d="M938,87H63c-13.809,0-25,11.193-25,25v1025c0,13.807,11.191,25,25,25h875c13.807,0,25-11.193,25-25
	V112C963,98.193,951.807,87,938,87z M836.361,682.152c-4.314,25.938-28.869,48.832-54.952,51.504
	c-186.278,17.328-373.361,17.332-559.643,0.002c-26.09-2.683-50.63-25.563-54.954-51.506c-20.308-131.698-20.303-264.303-0.001-396
	c4.327-25.942,28.862-48.833,54.955-51.51c186.287-17.319,373.354-17.316,559.643,0c26.094,2.674,50.625,25.57,54.952,51.51
	C856.664,417.86,856.65,550.444,836.361,682.152z"/>
<linearGradient id="SVGID_4_" gradientUnits="userSpaceOnUse" x1="208.7395" y1="865.5332" x2="794.2607" y2="102.467">
	<stop  offset="0.49" style="stop-color:#CCCCCC"/>
	<stop  offset="0.51" style="stop-color:#999999"/>
</linearGradient>
<path fill="url(#SVGID_4_)" d="M865,163H138c-13.255,0-24,10.745-24,24v594c0,13.255,10.745,24,24,24h727c13.255,0,24-10.745,24-24
	V187C889,173.745,878.255,163,865,163z M836.361,682.152c-4.314,25.938-28.869,48.832-54.952,51.504
	c-186.278,17.328-373.361,17.332-559.643,0.002c-26.09-2.683-50.63-25.563-54.954-51.506c-20.308-131.698-20.303-264.303-0.001-396
	c4.327-25.942,28.862-48.833,54.955-51.51c186.287-17.319,373.354-17.316,559.643,0c26.094,2.674,50.625,25.57,54.952,51.51
	C856.664,417.86,856.65,550.444,836.361,682.152z"/>
<linearGradient id="SVGID_5_" gradientUnits="userSpaceOnUse" x1="69.2004" y1="552.9805" x2="414.2004" y2="552.9805" gradientTransform="matrix(1 0 0 1 484.7998 509.0195)">
	<stop  offset="0" style="stop-color:#B3B3B3"/>
	<stop  offset="1" style="stop-color:#808080"/>
</linearGradient>
<path fill="url(#SVGID_5_)" d="M564.081,1097c-5.521,0-10.081-4.979-10.081-10.5v-24.996c0-5.521,4.561-9.504,10.081-9.504H730
	v-15.5c0-5.521,4.205-9.5,9.729-9.5h149.354c5.522,0,9.918,3.979,9.918,9.5v50c0,5.521-4.396,10.5-9.918,10.5H564.081z"/>
<polygon fill="#1A1A1A" points="739.729,1036.5 739.729,1061.504 564.081,1061.504 564.081,1086.5 739.729,1086.5 889.082,1086.5 
	889.082,1061.504 889.082,1036.5 "/>
<g>
	
		<linearGradient id="SVGID_6_" gradientUnits="userSpaceOnUse" x1="-363.7698" y1="570.9517" x2="-277.8285" y2="485.0104" gradientTransform="matrix(1 0 0 1 484.7998 509.0195)">
		<stop  offset="0" style="stop-color:#CCCCCC"/>
		<stop  offset="1" style="stop-color:#999999"/>
	</linearGradient>
	<path fill="url(#SVGID_6_)" d="M214,1063c0,13.255-10.745,24-24,24h-52c-13.255,0-24-10.745-24-24v-52c0-13.255,10.745-24,24-24h52
		c13.255,0,24,10.745,24,24V1063z"/>
</g>
<linearGradient id="SVGID_7_" gradientUnits="userSpaceOnUse" x1="-341.9177" y1="548.6841" x2="-299.512" y2="506.2782" gradientTransform="matrix(1 0 0 1 484.7998 509.0195)">
	<stop  offset="0" style="stop-color:#B3B3B3"/>
	<stop  offset="1" style="stop-color:#808080"/>
</linearGradient>
<path fill="url(#SVGID_7_)" d="M164.084,1066.5c-16.542,0-30-13.459-30-30s13.458-30,30-30s30,13.459,30,30
	S180.626,1066.5,164.084,1066.5z"/>
<circle fill="#006837" cx="164.084" cy="1036.5" r="25"/>
<g>
	<rect x="-1218" y="1168" fill="#BBBBBB" width="1000" height="182"/>
	<rect x="-1210.5" y="1173" fill="#555555" width="985" height="172"/>
	<path fill="#EA5541" d="M-1011.5,1322.051c0,9.637-7.737,17.449-17.282,17.449h-137.436c-9.547,0-17.282-7.813-17.282-17.449
		v-137.103c0-9.638,7.735-17.448,17.28-17.448h137.438c9.545,0,17.282,7.811,17.282,17.448V1322.051z"/>
	<path fill="#EA5541" d="M-833.5,1322.051c0,9.637-7.737,17.449-17.282,17.449h-137.438c-9.545,0-17.28-7.813-17.28-17.449v-137.103
		c0-9.638,7.735-17.448,17.28-17.448h137.438c9.545,0,17.282,7.811,17.282,17.448V1322.051z"/>
	<path fill="#EA5541" d="M-607.5,1322.051c0,9.637-7.737,17.449-17.282,17.449h-185.438c-9.545,0-17.28-7.813-17.28-17.449v-137.103
		c0-9.638,7.735-17.448,17.28-17.448h185.438c9.545,0,17.282,7.811,17.282,17.448V1322.051z"/>
	<path fill="#EA5541" d="M-429.5,1322.051c0,9.637-7.737,17.449-17.282,17.449h-137.438c-9.545,0-17.28-7.813-17.28-17.449v-137.103
		c0-9.638,7.735-17.448,17.28-17.448h137.438c9.545,0,17.282,7.811,17.282,17.448V1322.051z"/>
	<path fill="#EA5541" d="M-251.5,1322.051c0,9.637-7.737,17.449-17.282,17.449h-137.438c-9.545,0-17.28-7.813-17.28-17.449v-137.103
		c0-9.638,7.735-17.448,17.28-17.448h137.438c9.545,0,17.282,7.811,17.282,17.448V1322.051z"/>
	<g opacity="0.75">
		
			<radialGradient id="SVGID_8_" cx="-1502.4705" cy="821.2861" r="260.8794" gradientTransform="matrix(1 0 0 1 484.7998 511.9277)" gradientUnits="userSpaceOnUse">
			<stop  offset="0" style="stop-color:#757575"/>
			<stop  offset="1" style="stop-color:#FFFFFF"/>
		</radialGradient>
		<path fill="url(#SVGID_8_)" d="M-1011.5,1322.051c0,9.637-7.737,17.449-17.282,17.449h-137.436
			c-9.547,0-17.282-7.813-17.282-17.449v-137.103c0-9.638,7.735-17.448,17.28-17.448h137.438c9.545,0,17.282,7.811,17.282,17.448
			V1322.051z"/>
		
			<radialGradient id="SVGID_9_" cx="-1641.7576" cy="687.2529" r="197.377" gradientTransform="matrix(1 0 0 1 484.7998 495.1855)" gradientUnits="userSpaceOnUse">
			<stop  offset="0" style="stop-color:#757575"/>
			<stop  offset="1" style="stop-color:#FFFFFF"/>
		</radialGradient>
		<path fill="url(#SVGID_9_)" d="M-1033.5,1299.776c0,4.265-3.881,7.724-8.67,7.724h-110.659c-4.79,0-8.671-3.459-8.671-7.724
			v-112.556c0-4.264,3.882-7.723,8.671-7.723h110.659c4.789,0,8.67,3.459,8.67,7.723V1299.776z"/>
	</g>
	<rect x="-1147" y="1197" fill="none" width="96" height="96"/>
	<g opacity="0.75">
		<g>
			<g>
				<path fill="#FFFFFF" d="M-1114.33,1275.385h52.808c0.776,0,1.406-0.628,1.406-1.406c0-0.773-0.63-1.404-1.406-1.404h-52.808
					c-0.777,0-1.406,0.631-1.406,1.404C-1115.736,1274.757-1115.106,1275.385-1114.33,1275.385z"/>
				<path fill="#FFFFFF" d="M-1114.33,1228.219h4.626c0.775,0,1.406-0.63,1.406-1.406c0-0.774-0.631-1.404-1.406-1.404h-4.626
					c-0.777,0-1.406,0.63-1.406,1.404C-1115.736,1227.59-1115.106,1228.219-1114.33,1228.219z"/>
				<path fill="#FFFFFF" d="M-1114.33,1240.011h4.626c0.775,0,1.406-0.63,1.406-1.405s-0.631-1.405-1.406-1.405h-4.626
					c-0.777,0-1.406,0.63-1.406,1.405S-1115.106,1240.011-1114.33,1240.011z"/>
				<path fill="#FFFFFF" d="M-1114.33,1251.803h4.626c0.775,0,1.406-0.63,1.406-1.406c0-0.774-0.631-1.404-1.406-1.404h-4.626
					c-0.777,0-1.406,0.63-1.406,1.404C-1115.736,1251.173-1115.106,1251.803-1114.33,1251.803z"/>
				<path fill="#FFFFFF" d="M-1114.33,1263.595h4.626c0.775,0,1.406-0.63,1.406-1.405s-0.631-1.405-1.406-1.405h-4.626
					c-0.777,0-1.406,0.63-1.406,1.405S-1115.106,1263.595-1114.33,1263.595z"/>
				<path fill="#FFFFFF" d="M-1097.689,1263.595h29.423c1.46,0,2.647-1.188,2.647-2.646v-22.022h1.757
					c0.799,0,1.497-0.513,1.734-1.273c0.237-0.766-0.042-1.582-0.7-2.038l-19.115-13.245c-0.611-0.424-1.458-0.424-2.069,0
					l-19.114,13.245c-0.657,0.456-0.938,1.272-0.698,2.038c0.237,0.763,0.935,1.273,1.731,1.273h1.759v22.022
					C-1100.337,1262.406-1099.148,1263.595-1097.689,1263.595z M-1079.548,1260.782h-6.861v-11.891h6.861V1260.782z
					 M-1068.431,1260.782L-1068.431,1260.782h-8.305v-12.117c0-1.425-1.158-2.584-2.584-2.584h-7.316
					c-1.426,0-2.586,1.159-2.586,2.584v12.117h-8.303v-21.858h29.094V1260.782L-1068.431,1260.782z M-1082.979,1225.069
					l15.937,11.042h-31.869L-1082.979,1225.069z"/>
				<path fill="#FFFFFF" d="M-1050.914,1221.35c0.774,0,1.406-0.629,1.406-1.404v-5.136c0-2.802-2.275-5.081-5.072-5.081h-68.674
					v-0.063c0-6.148-4.992-11.151-11.127-11.151c-6.138,0-11.127,5.003-11.127,11.151v43.992c0,0.774,0.63,1.404,1.404,1.404
					c0.777,0,1.406-0.63,1.406-1.404v-43.992c0-4.6,3.73-8.339,8.314-8.339c4.585,0,8.313,3.739,8.313,8.339v1.47v58.789
					c-0.193-0.218-0.396-0.428-0.607-0.633c-1.938-1.864-4.414-2.939-7.063-3.088c-0.054-0.002-0.109-0.005-0.165-0.007
					c-0.138-0.007-0.278-0.013-0.417-0.013c-0.021,0-0.041-0.001-0.062-0.001c-0.061,0-0.117,0.003-0.179,0.005
					c-0.086,0.001-0.17,0-0.256,0.002c-0.033,0.002-0.065,0.007-0.103,0.01c-0.074,0.003-0.149,0.009-0.227,0.014
					c-0.118,0.008-0.233,0.018-0.353,0.029c-0.079,0.007-0.156,0.018-0.234,0.023c-0.107,0.016-0.217,0.028-0.325,0.048
					c-0.085,0.012-0.17,0.024-0.255,0.041c-0.094,0.017-0.186,0.033-0.276,0.053c-0.1,0.021-0.194,0.04-0.291,0.062
					c-0.064,0.018-0.128,0.032-0.192,0.049c-2.209,0.554-4.159,1.764-5.626,3.416v-10.572c0-0.775-0.63-1.406-1.406-1.406
					c-0.774,0-1.405,0.631-1.405,1.406v17.976c0,0.018,0.002,0.034,0.004,0.052c0.011,2.891,1.104,5.604,3.115,7.691
					c2.116,2.197,4.96,3.408,8.009,3.408h79.801c2.797,0,5.071-2.28,5.071-5.081v-57.604c0-0.774-0.631-1.406-1.405-1.406
					c-0.776,0-1.406,0.632-1.406,1.406v57.604c0,1.251-1.014,2.268-2.26,2.268h-79.798c-2.276,0-4.4-0.903-5.981-2.546
					c-1.562-1.623-2.385-3.754-2.327-6.01c0.001-0.05,0.001-0.098,0.003-0.146c0.003-0.082,0.009-0.162,0.017-0.244
					c0.004-0.057,0.008-0.114,0.014-0.173c0.006-0.077,0.016-0.152,0.024-0.229c0.008-0.059,0.015-0.115,0.021-0.175
					c0.012-0.077,0.024-0.156,0.038-0.235c0.009-0.053,0.018-0.104,0.027-0.156c0.017-0.086,0.033-0.17,0.054-0.254
					c0.01-0.043,0.02-0.085,0.029-0.127c0.021-0.094,0.047-0.188,0.07-0.279c0.011-0.028,0.019-0.059,0.025-0.089
					c0.03-0.104,0.063-0.206,0.097-0.312c0.006-0.014,0.012-0.027,0.017-0.041c0.791-2.319,2.578-4.188,4.841-5.084
					c0.011-0.005,0.021-0.01,0.032-0.015c0.102-0.04,0.202-0.076,0.307-0.109c0.028-0.013,0.057-0.021,0.086-0.03
					c0.088-0.029,0.178-0.058,0.267-0.082c0.047-0.017,0.092-0.027,0.137-0.04c0.077-0.021,0.152-0.041,0.229-0.062
					c0.062-0.016,0.119-0.027,0.181-0.043c0.065-0.015,0.134-0.027,0.199-0.043c0.071-0.013,0.146-0.023,0.215-0.036
					c0.061-0.012,0.118-0.021,0.18-0.028c0.079-0.013,0.158-0.021,0.236-0.029c0.057-0.008,0.11-0.014,0.166-0.021
					c0.082-0.009,0.164-0.015,0.246-0.021c0.058-0.002,0.112-0.007,0.17-0.01c0.076-0.003,0.15-0.004,0.228-0.006
					c0.065-0.002,0.135-0.003,0.202-0.003c0.083,0,0.165,0.003,0.246,0.006c0.056,0.003,0.112,0.003,0.169,0.006
					c0.103,0.006,0.203,0.015,0.304,0.021c0.034,0.003,0.068,0.006,0.102,0.01c0.134,0.016,0.265,0.03,0.394,0.052
					c0.001,0,0.003,0,0.005,0c3.708,0.568,6.617,3.605,7.005,7.383c0.028,0.285,0.043,0.572,0.043,0.86
					c0,0.012,0.002,0.021,0.002,0.03c0.002,0.052,0.005,0.1,0.012,0.146c0.003,0.021,0.008,0.044,0.012,0.063
					c0.008,0.051,0.019,0.098,0.03,0.145c0.006,0.012,0.009,0.022,0.013,0.037c0.017,0.055,0.037,0.104,0.061,0.155
					c0.007,0.019,0.018,0.034,0.024,0.054c0.021,0.042,0.046,0.084,0.069,0.124c0.01,0.013,0.018,0.022,0.024,0.038
					c0.029,0.043,0.063,0.084,0.097,0.125c0.016,0.016,0.028,0.028,0.042,0.047c0.034,0.035,0.07,0.066,0.107,0.101
					c0.012,0.011,0.022,0.021,0.035,0.03c0.041,0.033,0.085,0.063,0.129,0.092c0.016,0.01,0.03,0.021,0.046,0.027
					c0.052,0.03,0.104,0.059,0.162,0.082c0.001,0,0.002,0.002,0.003,0.002c0.005,0.002,0.011,0.002,0.016,0.006
					c0.054,0.02,0.104,0.036,0.159,0.051c0.018,0.004,0.03,0.009,0.045,0.012c0.061,0.017,0.118,0.025,0.18,0.031
					c0.011,0.001,0.021,0.001,0.027,0.001c0.036,0.003,0.074,0.006,0.111,0.006c0.015,0,0.03-0.001,0.045-0.003
					c0.018,0,0.035-0.002,0.053-0.003c0.06-0.003,0.114-0.011,0.169-0.021c0.003,0,0.006,0,0.011-0.002
					c0.063-0.012,0.121-0.027,0.182-0.049c0.011-0.005,0.021-0.008,0.033-0.012c0.055-0.021,0.106-0.045,0.158-0.072
					c0.006-0.002,0.01-0.003,0.014-0.004c0.055-0.029,0.104-0.063,0.155-0.1c0.013-0.009,0.021-0.018,0.033-0.025
					c0.052-0.038,0.1-0.078,0.144-0.121l0,0c0.004-0.005,0.006-0.008,0.011-0.012c0.027-0.029,0.056-0.059,0.082-0.092
					c0.009-0.011,0.015-0.021,0.022-0.031c0.021-0.025,0.039-0.052,0.06-0.078c0.006-0.01,0.012-0.021,0.018-0.029
					c0.021-0.027,0.036-0.059,0.055-0.09c0.003-0.007,0.006-0.014,0.009-0.02c0.018-0.034,0.035-0.069,0.05-0.104
					c0.002-0.005,0.003-0.009,0.005-0.015c0.017-0.038,0.029-0.076,0.042-0.115c0.001-0.005,0.002-0.01,0.003-0.016
					c0.014-0.037,0.022-0.077,0.03-0.117c0.002-0.012,0.004-0.023,0.005-0.036c0.006-0.034,0.012-0.063,0.016-0.1
					c0.006-0.047,0.009-0.094,0.009-0.142v-64.795h68.674c1.246,0,2.26,1.02,2.26,2.271v5.134
					C-1052.32,1220.721-1051.69,1221.35-1050.914,1221.35z"/>
			</g>
		</g>
	</g>
	<g opacity="0.75">
		
			<radialGradient id="SVGID_10_" cx="-1324.4709" cy="821.2861" r="260.8793" gradientTransform="matrix(1 0 0 1 484.7998 511.9277)" gradientUnits="userSpaceOnUse">
			<stop  offset="0" style="stop-color:#757575"/>
			<stop  offset="1" style="stop-color:#FFFFFF"/>
		</radialGradient>
		<path fill="url(#SVGID_10_)" d="M-833.5,1322.051c0,9.637-7.737,17.449-17.282,17.449h-137.438c-9.545,0-17.28-7.813-17.28-17.449
			v-137.103c0-9.638,7.735-17.448,17.28-17.448h137.438c9.545,0,17.282,7.811,17.282,17.448V1322.051z"/>
		
			<radialGradient id="SVGID_11_" cx="-1463.7581" cy="687.2529" r="197.3762" gradientTransform="matrix(1 0 0 1 484.7998 495.1855)" gradientUnits="userSpaceOnUse">
			<stop  offset="0" style="stop-color:#757575"/>
			<stop  offset="1" style="stop-color:#FFFFFF"/>
		</radialGradient>
		<path fill="url(#SVGID_11_)" d="M-855.5,1299.776c0,4.265-3.883,7.724-8.672,7.724h-110.657c-4.79,0-8.671-3.459-8.671-7.724
			v-112.556c0-4.264,3.882-7.723,8.671-7.723h110.657c4.789,0,8.672,3.459,8.672,7.723V1299.776z"/>
	</g>
	<g opacity="0.75">
		
			<radialGradient id="SVGID_12_" cx="-1100.1931" cy="821.2861" r="299.4911" gradientTransform="matrix(1 0 0 1 484.7998 511.9277)" gradientUnits="userSpaceOnUse">
			<stop  offset="0" style="stop-color:#757575"/>
			<stop  offset="1" style="stop-color:#FFFFFF"/>
		</radialGradient>
		<path fill="url(#SVGID_12_)" d="M-607.5,1322.051c0,9.637-7.737,17.449-17.282,17.449h-185.438c-9.545,0-17.28-7.813-17.28-17.449
			v-137.103c0-9.638,7.735-17.448,17.28-17.448h185.438c9.545,0,17.282,7.811,17.282,17.448V1322.051z"/>
		
			<radialGradient id="SVGID_13_" cx="-1284.0544" cy="687.2529" r="232.57" gradientTransform="matrix(1 0 0 1 484.7998 495.1855)" gradientUnits="userSpaceOnUse">
			<stop  offset="0" style="stop-color:#757575"/>
			<stop  offset="1" style="stop-color:#FFFFFF"/>
		</radialGradient>
		<path fill="url(#SVGID_13_)" d="M-629.5,1299.776c0,4.265-9.883,7.724-14.672,7.724h-152.657c-4.79,0-8.671-3.459-8.671-7.724
			v-112.556c0-4.264,3.882-7.723,8.671-7.723h152.657c4.789,0,14.672,3.459,14.672,7.723V1299.776z"/>
	</g>
	<g opacity="0.75">
		
			<radialGradient id="SVGID_14_" cx="-920.4724" cy="821.2861" r="260.8897" gradientTransform="matrix(1 0 0 1 484.7998 511.9277)" gradientUnits="userSpaceOnUse">
			<stop  offset="0" style="stop-color:#757575"/>
			<stop  offset="1" style="stop-color:#FFFFFF"/>
		</radialGradient>
		<path fill="url(#SVGID_14_)" d="M-429.5,1322.051c0,9.637-7.737,17.449-17.282,17.449h-137.438c-9.545,0-17.28-7.813-17.28-17.449
			v-137.103c0-9.638,7.735-17.448,17.28-17.448h137.438c9.545,0,17.282,7.811,17.282,17.448V1322.051z"/>
		
			<radialGradient id="SVGID_15_" cx="-1059.7585" cy="687.2529" r="197.377" gradientTransform="matrix(1 0 0 1 484.7998 495.1855)" gradientUnits="userSpaceOnUse">
			<stop  offset="0" style="stop-color:#757575"/>
			<stop  offset="1" style="stop-color:#FFFFFF"/>
		</radialGradient>
		<path fill="url(#SVGID_15_)" d="M-451.5,1299.776c0,4.265-3.883,7.724-8.672,7.724h-110.656c-4.79,0-8.672-3.459-8.672-7.724
			v-112.556c0-4.264,3.882-7.723,8.672-7.723h110.656c4.789,0,8.672,3.459,8.672,7.723V1299.776z"/>
	</g>
	<g opacity="0.75">
		
			<radialGradient id="SVGID_16_" cx="-742.4724" cy="821.2861" r="260.8897" gradientTransform="matrix(1 0 0 1 484.7998 511.9277)" gradientUnits="userSpaceOnUse">
			<stop  offset="0" style="stop-color:#757575"/>
			<stop  offset="1" style="stop-color:#FFFFFF"/>
		</radialGradient>
		<path fill="url(#SVGID_16_)" d="M-251.5,1322.051c0,9.637-7.737,17.449-17.282,17.449h-137.438c-9.545,0-17.28-7.813-17.28-17.449
			v-137.103c0-9.638,7.735-17.448,17.28-17.448h137.438c9.545,0,17.282,7.811,17.282,17.448V1322.051z"/>
		
			<radialGradient id="SVGID_17_" cx="-881.7585" cy="687.2529" r="197.377" gradientTransform="matrix(1 0 0 1 484.7998 495.1855)" gradientUnits="userSpaceOnUse">
			<stop  offset="0" style="stop-color:#757575"/>
			<stop  offset="1" style="stop-color:#FFFFFF"/>
		</radialGradient>
		<path fill="url(#SVGID_17_)" d="M-273.5,1299.776c0,4.265-3.883,7.724-8.67,7.724h-110.658c-4.79,0-8.672-3.459-8.672-7.724
			v-112.556c0-4.264,3.882-7.723,8.672-7.723h110.658c4.787,0,8.67,3.459,8.67,7.723V1299.776z"/>
	</g>
	<rect x="-969" y="1197" fill="none" width="96" height="96"/>
	<rect x="-767" y="1197" fill="none" width="96" height="96"/>
	<rect x="-565" y="1197" fill="none" width="96" height="96"/>
	<rect x="-387" y="1197" fill="none" width="96" height="96"/>
	<g opacity="0.75">
		<path fill="#FFFFFF" d="M-890.558,1236.539c0.002,0,0.005-0.002,0.008-0.002c-0.003,0-0.008,0.002-0.016,0.002H-890.558z"/>
		<path fill="#FFFFFF" d="M-894.974,1234.104c-0.797-1.259-1.613-2.604-2.433-3.97h-57.365c-3.124,0-5.665,2.542-5.665,5.666v6.804
			c0,3.125,2.541,5.666,5.665,5.666h33.535c0.327,0,0.591,0.266,0.591,0.592v9.387c0,3.253,2.649,5.898,5.901,5.898h15.168
			c0.692,0,1.26,0.563,1.26,1.261v21.443c0,0.693-0.566,1.262-1.26,1.262h-32.569c-1.072,1.833-2.164,3.633-3.218,5.299
			c-0.266,0.42-0.593,0.782-0.953,1.104h36.74c4.225,0,7.664-3.438,7.664-7.662v-21.443c0-4.227-3.439-7.662-7.664-7.662h-14.665
			v-8.884c0-3.856-3.142-6.995-6.995-6.995h-32.797v-5.326h63.468C-892.369,1236.533-894.016,1235.623-894.974,1234.104z"/>
		<path fill="#FFFFFF" d="M-939.777,1257.82c-6.614,0-11.979,5.361-11.979,11.979c0,5.043,6.963,16.667,10.271,21.904
			c0.369,0.584,1.017,0.938,1.708,0.938c0.693,0,1.338-0.354,1.708-0.938c3.313-5.24,10.271-16.859,10.271-21.902
			C-927.799,1263.184-933.162,1257.82-939.777,1257.82z M-939.777,1275.712c-2.968,0-5.373-2.406-5.373-5.374
			c0-2.969,2.405-5.373,5.373-5.373c2.967,0,5.371,2.404,5.371,5.373C-934.406,1273.306-936.81,1275.712-939.777,1275.712z"/>
		<path fill="#FFFFFF" d="M-890.558,1198.514c-6.614,0-11.979,5.363-11.979,11.979c0,5.045,6.96,16.662,10.271,21.901
			c0.369,0.587,1.014,0.938,1.708,0.942c0.689,0,1.338-0.356,1.706-0.94c3.309-5.237,10.272-16.858,10.272-21.903
			C-878.579,1203.877-883.942,1198.514-890.558,1198.514z M-890.558,1216.405c-2.968,0-5.373-2.406-5.373-5.374
			c0-2.969,2.405-5.372,5.373-5.372c2.967,0,5.371,2.403,5.371,5.372C-885.187,1213.999-887.593,1216.405-890.558,1216.405z"/>
	</g>
	<g opacity="0.75">
		<g id="history_1_">
			<path opacity="0.9" fill="#FFFFFF" enable-background="new    " d="M-513.107,1198.514c-16.801,0-31.681,9.119-39.36,23.039
				l-11.04-11.04v31.2h31.199l-13.438-13.439c6.238-12,18.238-20.158,32.641-20.158c19.68,0,36,16.318,36,36c0,19.68-16.32,36-36,36
				c-15.84,0-28.801-10.08-34.08-24h-10.08c5.279,19.197,23.04,33.6,44.16,33.6c25.438,0,45.6-20.641,45.6-45.6
				C-467.51,1219.153-488.147,1198.514-513.107,1198.514z M-520.309,1222.513v24.48l22.563,13.438l3.84-6.238l-19.199-11.521
				v-20.161L-520.309,1222.513L-520.309,1222.513z"/>
		</g>
	</g>
	<g opacity="0.75">
		<g>
			<path fill="#FFFFFF" d="M-291.983,1200.045c-0.623-1.342-2.229-1.91-3.552-1.266l-18.842,8.898h-46.263l-18.841-8.898
				c-1.322-0.646-2.93-0.076-3.553,1.266c-0.623,1.322-0.059,2.93,1.267,3.553l18.367,8.674l5.084,14.457
				c2.797,7.955,9.884,13.551,18.123,14.553v8.275c-4.025,1.152-6.992,4.875-6.992,9.277v0.889h-11.147
				c-1.477,0-2.664,1.191-2.664,2.666s1.188,2.664,2.664,2.664h11.147v19.807c0,5.326,4.327,9.654,9.656,9.654
				s9.657-4.328,9.657-9.654v-0.891h11.147c1.474,0,2.664-1.189,2.664-2.666c0-1.473-1.19-2.664-2.664-2.664h-11.146v-19.805
				c0-4.402-2.97-8.125-6.992-9.277v-8.275c8.239-1.002,15.326-6.598,18.122-14.553l5.084-14.457l18.367-8.674
				C-291.927,1202.955-291.359,1201.367-291.983,1200.045z M-333.18,1258.834v26.023c0,2.381-1.946,4.324-4.327,4.324
				s-4.328-1.943-4.328-4.324v-26.023c0-2.381,1.947-4.326,4.328-4.326S-333.18,1256.453-333.18,1258.834z M-321.748,1224.951
				c-2.344,6.688-8.675,11.168-15.761,11.168c-7.087,0-13.417-4.479-15.761-11.168l-4.195-11.963h39.933L-321.748,1224.951z"/>
		</g>
	</g>
	<g opacity="0.75">
		<path fill="#FFFFFF" d="M-755.474,1217.196h3.11c9.655,0,15.895,2.771,18.716,8.318c0.865,1.075,1.297,2.199,1.297,3.369v0.259
			c0,2.899-3.984,5.934-11.949,9.102v0.258c3.801,3.341,5.7,5.849,5.7,7.519v1.554c0,4.204-13.072,10.441-39.217,18.716
			l-5.443,1.297l-0.287-0.259l0.287-0.259v-0.779c-0.884,0-1.323-0.172-1.323-0.52l-0.26-1.034l2.62-1.035v-0.263h-0.259
			l-3.397,0.521v-0.521c1.208-0.174,1.813-0.433,1.813-0.774h-0.259l-1.556,0.519l-0.259-0.261h-0.259l-1.556,0.261h-0.261v-0.261
			l0.52-0.776v-0.262h-0.259l-1.296,0.262l-0.26-0.262v-0.258c1.632-1.4,3.015-2.104,4.146-2.104l-0.52-2.591
			c1.458-3.569,7.523-13.265,18.198-29.083c-3.264,0-5.433-0.862-6.508-2.592c-0.673-0.191-1.362-1.41-2.073-3.656
			c0-2.094,3.896-3.388,11.691-3.886L-755.474,1217.196z M-770.015,1253.303v0.26c8.87-2.954,15.188-5.901,18.948-8.839h-4.925
			c-6.412,0-9.617,0.604-9.617,1.813L-770.015,1253.303z M-756.77,1232.255c5.224-1.805,9.637-3.618,13.247-5.439
			c0-0.521-1.997-0.778-5.988-0.778h-3.629C-755.559,1229.567-756.77,1231.64-756.77,1232.255z"/>
		<path fill="#FFFFFF" d="M-721.122,1215.036h1.295c1.978,0,3.705,1.296,5.182,3.885l-0.517,10.369c0,2.918,0.432,5.259,1.295,7.024
			c0.365-0.021,2.104-1.759,5.211-5.211c0.577-0.175,4.034-3.543,10.367-10.107c2.381-3.281,4.808-4.924,7.283-4.924l1.815-0.26
			c1.688,0.385,2.638,0.901,2.849,1.556c0.388,0,1.163,0.689,2.334,2.072v0.519c0,1.747-2.516,8.148-7.546,19.206
			c-1.707,4.146-2.831,6.22-3.367,6.22l0.261,0.261v0.26l-3.369,6.738c-0.31,0.019-1.689,2.878-4.146,8.579l-1.813,2.33h-1.815
			v-0.517l-1.036,0.517c0-0.383-0.604-0.729-1.813-1.033l-0.52,0.519c-0.479-0.058-0.824-0.49-1.035-1.297
			c-0.689,0-1.034-0.173-1.034-0.519v-1.813c0-3.361,2.589-9.847,7.772-19.465c-2.707,2.496-5.299,5.604-7.772,9.329
			c-0.577,0-1.364,0.517-2.362,1.555h-0.261c-1.843-1.286-3.569-2.063-5.184-2.332c-1.748-1.188-3.3-4.729-4.664-10.625h-0.259
			c-7.544,17.315-11.7,26.309-12.469,26.981h-0.521l-1.295-0.779l-0.774,0.261l-0.261-0.261l-0.259,0.261l-0.519-1.037l-0.521,0.521
			l-0.259-0.261l-2.332,0.519c-0.384-0.938-0.902-1.459-1.556-1.554v-1.036c0-4.147,4.934-15.914,14.801-35.303
			c2.324-7.083,4.224-10.625,5.702-10.625L-721.122,1215.036z"/>
		<path fill="#FFFFFF" d="M-652.707,1215.986h0.259c1.248,0.037,1.871,0.211,1.871,0.519l0.289-0.26h0.26
			c3.014,1.957,4.521,3.646,4.521,5.064c-0.095,0.56-3.293,3.229-9.587,8.009l-13.073,12.266c4.628,8.601,6.938,14.742,6.938,18.429
			c0,0.959-0.364,2.38-1.094,4.261h-0.521l-1.871,0.263l-0.259-0.263v-0.259l-3.194,1.065l-0.288-1.325l-0.263,0.26h-0.259
			c-0.229,0-1.294-2.756-3.193-8.264l-4.005-7.229c-1.246,1.076-1.871,1.785-1.871,2.134l-2.156,0.806l0.287,0.289v0.258
			l-8.554,8.522c-1.172,1.095-2.507,2.795-4.001,5.098l-1.873,0.519c-1.056-0.363-1.586-0.721-1.586-1.063l-0.285,0.26h-0.52
			l-1.064-0.806l-0.287,0.287c-1.535-0.961-2.688-1.939-3.453-2.939v-0.805c0-2.149,7.022-9.357,21.074-21.625l0.262-0.258v-0.262
			c-0.887-2.937-1.768-7.656-2.65-14.167c0-3.437,0.98-6.104,2.938-8.005h2.937c2.554,0,4.511,1.075,5.875,3.227v1.586l-0.547,3.74
			l0.258,0.26l-0.258,1.354l0.258,1.583h-0.258l0.547,2.134l15.203-13.593C-654.694,1216.341-653.63,1215.986-652.707,1215.986z"/>
	</g>
</g>
<image overflow="visible" enable-background="new    " width="962" height="1202" xlink:href="../../../bmx.philpenny.co.uk/513C6D9.jpg"  transform="matrix(0.499 0 0 0.4992 -692.0002 375)">
</image>
<image overflow="visible" width="2000" height="2700" xlink:href="pc_old.png"  transform="matrix(0.5 0 0 0.5 1155.1155 0)">
</image>
</svg>
